<?xml version="1.0" encoding="UTF-8" standalone="no"?>
<svg
   xmlns:dc="http://purl.org/dc/elements/1.1/"
   xmlns:cc="http://creativecommons.org/ns#"
   xmlns:rdf="http://www.w3.org/1999/02/22-rdf-syntax-ns#"
   xmlns:svg="http://www.w3.org/2000/svg"
   xmlns="http://www.w3.org/2000/svg"
   xmlns:sodipodi="http://sodipodi.sourceforge.net/DTD/sodipodi-0.dtd"
   xmlns:inkscape="http://www.inkscape.org/namespaces/inkscape"
   version="1.1"
   id="svg2"
   width="760"
   height="709.33331"
   viewBox="0 0 760 709.33331"
   sodipodi:docname="flappy.svg"
   inkscape:version="1.0 (6e3e5246a0, 2020-05-07)">
  <metadata
     id="metadata8">
    <rdf:RDF>
      <cc:Work
         rdf:about="">
        <dc:format>image/svg+xml</dc:format>
        <dc:type
           rdf:resource="http://purl.org/dc/dcmitype/StillImage" />
        <dc:title></dc:title>
      </cc:Work>
    </rdf:RDF>
  </metadata>
  <defs
     id="defs6" />
  <sodipodi:namedview
     inkscape:pagecheckerboard="true"
     inkscape:document-rotation="0"
     pagecolor="#ffffff"
     bordercolor="#ffffff"
     borderopacity="1"
     objecttolerance="10"
     gridtolerance="10"
     guidetolerance="10"
     inkscape:pageopacity="0"
     inkscape:pageshadow="2"
     inkscape:window-width="2560"
     inkscape:window-height="1376"
     id="namedview4"
     showgrid="false"
     inkscape:zoom="0.35526318"
     inkscape:cx="-303.08906"
     inkscape:cy="-540.87956"
     inkscape:window-x="0"
     inkscape:window-y="27"
     inkscape:window-maximized="1"
     inkscape:current-layer="g10" />
  <g
     inkscape:groupmode="layer"
     inkscape:label="Image"
     id="g10">
    <path
       style="fill:#000080;stroke-width:1.33333"
       d="m 316.8865,687.23899 c -86.5798,-6.5838 -157.8819,-29.3263 -211.972,-67.6104 -16.313599,-11.5466 -40.944799,-36.1667 -52.302199,-52.2788 -15.648,-22.1988 -28.4511,-51.335 -33.6786,-76.6432 -3.4662,-16.7807 -4.9108,-36.5805 -3.4209,-46.8863 0.7265,-5.0254 1.3328,-17.6339 1.3473,-28.0189 0.022,-15.5223 0.6323,-21.4531 3.432,-33.3334 1.873,-7.9483 5.083,-17.4515 7.1333,-21.1182 2.0503,-3.6666 5.0272,-10.5981 6.6155,-15.4032 3.2253,-9.7581 18.9501,-38.3906 25.3435,-46.1469 3.8637,-4.6874 3.9816,-5.1279 1.7145,-6.4083 -12.0046,-6.78 -22.8403,-24.5111 -22.8403,-37.3749 0,-6.8075 3.3272,-16.4445 7.056,-20.4373 5.0476,-5.405 17.286,-11.9321 25.5719,-13.6384 13.084,-2.6942 18.937,-2.8807 44.044999,-1.4036 22.6156,1.3305 24.2224,1.265 29.3038,-1.1948 9.8281,-4.7577 10.0425,-5.7574 9.9204,-46.2353 -0.059,-19.6665 0.5665,-41.7573 1.3907,-49.0906 3.1619,-28.131701 14.0968,-52.356401 32.6734,-72.383201 12.6177,-13.6026 22.3124,-20.3581 39.6587,-27.635 13.0715,-5.4836 16.2491,-6.2674 30.1433,-7.435 29.2407,-2.4574 90.223,-3.4947 177.7176,-3.0229 84.1993,0.4541 87.8666,0.5776 96.6667,3.2548 9.6387,2.9323 26.1977,11.2059 33.4581,16.7172 7.0079,5.3196 37.8712,43.2689 41.0738,50.5041 5.4396,12.2888 7.3401,26.099301 8.6239,62.666701 1.5234,43.3939 2.6291,65.6421 3.4907,70.2353 1.0823,5.77 6.3603,8.2597 16.9091,7.9763 12.1546,-0.3265 59.1303,3.4838 64.5248,5.2338 8.1078,2.63 17.2698,16.2462 18.6236,27.6775 0.6058,5.1151 0.016,7.8764 -3.1905,14.9493 -4.7658,10.5107 -10.3867,17.1378 -19.8808,23.4397 -3.9338,2.611 -7.1523,5.3101 -7.1523,5.998 0,0.6878 0.8826,2.5976 1.9614,4.244 1.0788,1.6464 3.5101,7.4753 5.4029,12.9531 16.828,48.7004 20.5364,67.4018 23.1931,116.961 1.634,30.481 -0.021,41.3659 -9.7793,64.332 -3.895,9.1666 -7.8447,19.0666 -8.7771,22 -2.6565,8.3577 -5.8855,14.1018 -18.9543,33.7173 -13.4482,20.1851 -30.1803,41.7943 -36.3531,46.9493 -2.1953,1.8333 -6.6994,6.1017 -10.0092,9.4853 -3.3097,3.3836 -11.1177,9.4672 -17.3511,13.5191 -53.5845,34.8318 -120.8835,54.8267 -205.3333,61.0055 -20.697,1.5143 -75.4032,1.4455 -96,-0.1208 z m 114,-29.8263 c 38.0435,-4.16 74.921,-12.0259 104.5431,-22.2987 16.8633,-5.8482 55.1619,-23.7293 59.4473,-27.7552 1.472,-1.3828 2.9763,-2.4189 3.3429,-2.3024 2.1236,0.6746 16.9198,-11.1601 25.0331,-20.0228 5.2115,-5.6927 13.4299,-14.5505 18.2631,-19.6838 9.8717,-10.4846 29.5796,-38.8577 30.8309,-44.3866 0.4498,-1.9874 2.2676,-7.3466 4.0395,-11.9093 1.7719,-4.5628 3.7754,-11.2159 4.4522,-14.7848 0.6768,-3.5688 2.13,-8.8356 3.2292,-11.704 4.8678,-12.7019 6.7165,-27.3302 6.4727,-51.2153 -0.1311,-12.8333 -0.5354,-25.7333 -0.8986,-28.6666 -2.3405,-18.9026 -5.4977,-32.1474 -12.6454,-53.0493 -4.4605,-13.0438 -8.11,-24.5129 -8.11,-25.4869 0,-0.974 -1.31,-3.4363 -2.9112,-5.4719 l -2.9112,-3.701 -30.0888,0.883 c -46.5918,1.3672 -70.2078,2.1888 -102.7555,3.575 -16.5,0.7028 -47.1,1.6107 -68,2.0177 -20.9,0.407 -42.0149,1.301 -46.922,1.9867 -12.4522,1.7399 -32.3763,1.526 -70.4113,-0.756 -25.5773,-1.5345 -37.2126,-1.6515 -53.6137,-0.5392 -22.8377,1.549 -53.9596,0.9694 -79.053,-1.4722 -8.8,-0.8562 -18.4,-1.5906 -21.3333,-1.632 -16.9137,-0.2387 -68.9096,-5.5719 -76.2788,-7.824 -4.5533,-1.3914 -9.1344,-2.5299 -10.1802,-2.5299 -1.0458,0 -4.905499,-0.9702 -8.576999,-2.156 l -6.6756,-2.156 -4.6368,4.9159 c -2.5994,2.7558 -6.2585,9.1224 -8.3276,14.4893 -2.0299,5.2654 -5.6405,12.8734 -8.0235,16.9068 -7.3788,12.4885 -10.8247,20.1713 -15.2498,34 -8.5298,26.6557 -9.9384,35.9568 -9.9952,66 -0.057,30.2414 1.894,42.9696 10.1958,66.5073 30.8198,87.3827 126.030299,140.9431 270.415399,152.1213 21.4964,1.6643 85.0257,0.5402 107.3333,-1.8991 z m -91.3333,-48.1002 c -6.2334,-0.9512 -16.3246,-1.782 -22.4251,-1.8461 -20.3767,-0.2142 -50.8787,-10.2455 -69.7129,-22.9268 -10.6315,-7.1583 -34.5287,-29.3057 -34.5287,-32.0004 0,-1.0612 -0.7907,-3.1129 -1.757,-4.5594 -6.8723,-10.2869 -10.3641,-33.1924 -9.3949,-61.6285 0.8586,-25.1904 2.5202,-31.9351 10.2915,-41.7741 7.308,-9.2526 12.6146,-11.894 23.8943,-11.894 9.6315,0 16.8485,2.1196 24.5338,7.2055 2.8389,1.8786 9.6475,4.609 15.1303,6.0675 5.4827,1.4584 14.4687,3.9628 19.9687,5.5652 8.0276,2.3387 14.4706,3.0219 32.6666,3.4639 40.2846,0.9785 75.4828,0.6418 88.5615,-0.8471 7.0245,-0.7997 19.3719,-2.0243 27.4385,-2.7213 13.8904,-1.2002 15.4783,-1.6585 30,-8.6577 8.4334,-4.0648 17.0266,-8.7447 19.0961,-10.3999 3.3245,-2.659 5.2711,-3.0095 16.7166,-3.0095 12.5859,0 13.1086,0.1224 18.3947,4.306 7.1947,5.6942 10.3704,13.6603 12.4687,31.2774 2.6179,21.9789 1.2376,49.5108 -3.2058,63.948 -4.711,15.3066 -9.4365,21.3991 -33.9495,43.7706 -9.8903,9.0262 -28.357,19.5975 -39.0235,22.339 -9.7687,2.5107 -27.5325,6.9485 -47.1639,11.7826 -17.996,4.4313 -19.529,4.5906 -42.6667,4.4325 -13.2,-0.09 -29.1,-0.9422 -35.3333,-1.8934 z m 70,-29.9601 c 8.8,-0.6363 17.8,-1.5305 20,-1.9871 30.2459,-6.277 33.1026,-7.3143 53.2895,-19.3488 16.4,-9.777 30.8582,-23.0901 35.8904,-33.0477 4.7451,-9.3896 7.9164,-22.828 5.9472,-25.2008 -3.6336,-4.3782 -6.2856,-4.6427 -9.4386,-0.9414 -9.847,11.5593 -57.1588,33.4464 -77.7853,35.9845 -3.6134,0.4446 -12.2699,1.9517 -19.2366,3.349 -6.9666,1.3973 -23.4666,3.4894 -36.6666,4.6492 -20.0428,1.761 -27.4077,1.8537 -44.6667,0.5622 -11.3667,-0.8505 -23.3667,-2.1984 -26.6667,-2.9952 -8.0327,-1.9395 -31.2569,-11.3625 -46.7576,-18.9715 -12.629,-6.1993 -26.175,-17.1304 -31.0488,-25.055 -3.8691,-6.291 -10.2001,-4.0535 -10.1861,3.6 0.038,20.9706 26.9497,53.966 55.9925,68.6512 18.992,9.603 19.7031,9.7575 49.3334,10.7182 40.5902,1.316 64.1273,1.3255 82,0.033 z m -31.3334,-48.6576 c 12.1,-1.0742 27.1,-2.9004 33.3334,-4.0583 6.2333,-1.1578 15.2846,-2.6693 20.1139,-3.3587 15.883,-2.2677 47.6894,-14.6664 63.0201,-24.5664 3.7763,-2.4385 12.416,-9.7512 19.1993,-16.2502 12.0952,-11.5884 12.3333,-11.9363 12.3333,-18.0201 0,-3.4119 -1.1738,-8.942 -2.6085,-12.289 -2.3739,-5.5382 -3.1234,-6.1726 -8.3333,-7.0536 -6.9241,-1.1708 -6.1245,-1.3754 -14.3115,3.6621 -11.5768,7.1233 -48.173,16.8872 -75.4133,20.1203 -17.2489,2.0473 -120.389,2.0918 -130,0.056 -21.768,-4.6105 -39.8646,-11.3725 -49.7436,-18.5873 -2.4006,-1.7532 -6.0416,-3 -8.7606,-3 -3.8372,0 -5.7783,1.1678 -11.0743,6.6623 -9.1888,9.5332 -8.9853,13.5015 1.2451,24.2789 7.2803,7.6696 18.672,17.1624 24.8044,20.67 1.5493,0.8861 3.481,2.5193 4.2927,3.6294 1.4896,2.0372 24.5722,13.4549 40.5696,20.0675 12.096,5 21.1155,7.0331 37.3333,8.4155 20.436,1.742 20.0789,1.7451 44,-0.3786 z M 211.5532,392.01649 v -18 h -28.6667 -28.6667 v -16 -16 h 45.3334 45.3333 l -0.012,27 c -0.01,14.85 -0.3899,30.15 -0.8524,34 l -0.8408,7 H 227.367 211.5528 v -18 z m 346.2222,15.7778 c -0.4889,-0.4889 -0.8889,-8.5889 -0.8889,-18 v -17.1111 h -28.6667 -28.6666 v -15.1358 -15.1357 l 11,-0.8563 c 18.6678,-1.4532 78.0713,-1.0416 79.0535,0.5477 0.4827,0.781 0.4393,16.081 -0.096,34 l -0.9741,32.5801 h -14.9359 c -8.2147,0 -15.3359,-0.4 -15.8248,-0.8889 z M 343.5532,174.62139 c 59.7666,-0.4813 111.6666,-1.0754 115.3333,-1.3202 3.6667,-0.2449 32.3567,-0.4841 63.7557,-0.5316 l 57.0891,-0.086 -0.2728,-25.6667 c -0.2114,-19.8893 -0.8309,-27.8872 -2.7519,-35.5317 -5.3346,-21.227901 -20.7897,-40.727601 -40.0152,-50.487001 -20.8084,-10.5629 -13.556,-10.1143 -146.4716,-9.0617 -64.9,0.5139 -122.0188,1.4856 -126.9306,2.1594 -30.5034,4.1842 -56.3404,25.7888 -66.6763,55.753901 -2.7516,7.9774 -3.0498,11.2896 -3.0757,34.1671 -0.016,13.9333 0.2038,27.0121 0.4877,29.0639 l 0.5164,3.7306 20.1726,-0.6573 c 11.0949,-0.3615 69.0726,-1.0511 128.8393,-1.5323 z"
       id="path837" />
    <path
       id="path856"
       d="m 315.39492,658.35128 c -45.12366,-4.4461 -80.3575,-11.53968 -115.05555,-23.164 C 139.81121,614.90954 95.234295,582.50872 69.109798,539.80283 57.061418,520.10725 47.750095,494.30116 44.731071,472.23782 43.037838,459.8635 43.022303,422.12623 44.705385,409.84001 46.969681,393.31102 55.20511,366.39129 62.08894,353.01714 c 7.23024,-14.04717 12.931484,-25.37513 16.697518,-33.17675 2.311841,-4.78916 4.962786,-9.04818 7.045761,-11.31975 l 3.339422,-3.64178 7.028312,1.96278 c 11.828007,3.30319 22.154837,5.61531 29.898677,6.69416 14.9989,2.0896 44.52339,4.84386 60.87037,5.67843 4.64445,0.23712 16.04445,1.09523 25.33333,1.90693 17.77329,1.55309 45.77684,1.90666 96.75926,1.22165 16.34762,-0.21965 27.61624,0.0384 42.92592,0.98285 23.86891,1.47253 53.59825,1.74955 63.33333,0.59016 6.84033,-0.81464 28.77219,-1.66344 76.7037,-2.96856 14.90093,-0.40573 38.65093,-1.19612 52.77778,-1.75642 14.12685,-0.5603 46.42272,-1.67347 71.76859,-2.4737 l 46.08341,-1.45497 1.91328,2.3205 c 2.90331,3.52122 3.4502,4.93168 10.72248,27.65383 11.57221,36.15719 13.53192,45.97935 14.53162,72.83333 0.73869,19.84251 0.0208,38.65596 -1.85264,48.55555 -0.62261,3.28981 -2.20349,9.30648 -3.51308,13.37037 -1.30959,4.06389 -3.02732,10.11637 -3.81718,13.44997 -2.23496,9.43268 -9.55324,29.91805 -12.38886,34.67898 -4.10341,6.88951 -14.04882,21.06078 -19.96104,28.44259 -6.66767,8.32506 -26.22477,29.31913 -33.65428,36.12707 -5.70077,5.22383 -14.61563,11.85694 -15.93566,11.85694 -0.42433,0 -2.35384,1.13647 -4.28778,2.52548 -6.5549,4.7079 -33.83361,17.76421 -52.72973,25.23782 -29.28205,11.58136 -81.48804,22.53827 -122.84209,25.78189 -16.0005,1.25501 -91.40816,1.44074 -103.44444,0.25479 z m 84.09259,-47.53747 c 3.48333,-0.42381 20.66531,-4.34438 38.18218,-8.71238 29.84792,-7.44286 32.34583,-8.18626 39.75926,-11.83265 11.7836,-5.79592 21.48726,-12.6096 32.6928,-22.95612 16.95028,-15.65086 22.95389,-23.58408 26.91088,-35.56028 8.09182,-24.49066 7.03504,-74.23071 -1.92696,-90.69686 -2.33441,-4.28908 -8.56887,-10.04413 -11.98063,-11.05936 -1.5969,-0.47519 -7.21927,-0.68534 -14.56859,-0.54453 l -11.9681,0.22931 -5.23633,3.35224 c -6.53548,4.18394 -24.89865,13.24882 -30.98488,15.29549 -6.50648,2.18801 -39.58038,5.46427 -65.33896,6.4724 -24.88765,0.97404 -82.04749,-0.16202 -90.94526,-1.80756 -2.93178,-0.54219 -11.79845,-2.77524 -19.7037,-4.96233 -11.87332,-3.28491 -15.92517,-4.76164 -23.29646,-8.49061 -11.81983,-5.97938 -15.26391,-6.94661 -24.8545,-6.98008 -10.25654,-0.0358 -13.74718,1.15317 -19.68048,6.70349 -8.16104,7.63425 -12.18201,15.51658 -13.89627,27.2409 -1.44922,9.91165 -1.21314,47.08226 0.36216,57.02033 1.51785,9.57566 4.02135,17.83943 7.25751,23.95621 1.31065,2.47731 2.38301,4.97685 2.38301,5.55453 0,1.37876 14.64026,15.82737 23.57407,23.26546 9.10968,7.58452 15.77068,11.94555 25.33333,16.58597 17.58046,8.53121 34.81265,13.345 52.07407,14.54685 5.41852,0.37728 14.91852,1.20029 21.11111,1.82894 22.31927,2.26574 52.85246,2.99705 64.74074,1.55064 z M 243.93546,407.6902 c 0.25976,-1.45139 0.64084,-16.97038 0.84685,-34.48664 l 0.37456,-31.84775 -45.63097,0.18109 -45.63097,0.18108 -0.1889,16.36111 -0.18889,16.36111 h 28.86482 28.86482 v 17.94444 17.94444 h 16.10819 16.1082 z m 345.57516,-19.70371 c 0.74874,-29.23609 0.78217,-45.68996 0.0942,-46.3822 -0.76338,-0.76818 -77.96445,-0.77017 -85.08959,-0.002 l -5.4537,0.58782 v 15.42144 15.42144 h 28.85185 28.85185 l 0.0108,16.71296 c 0.006,9.19213 0.24342,17.07216 0.52778,17.51119 0.85936,1.32681 2.75347,1.49814 17.50122,1.58311 l 14.16941,0.0816 0.53615,-20.93519 z"
       style="fill:#ffffff;fill-opacity:1;stroke-width:0.703704" />
    <path
       id="path858"
       d="m 195.27545,145.30812 v -30.82776 l 6.96898,-13.93018 c 8.62713,-17.244599 22.33082,-30.462427 40.3555,-38.924684 l 13.38195,-6.282576 72.64867,-1.635406 C 368.58732,52.808041 427.25361,52.33468 459.00008,52.6556 l 57.72086,0.583492 13.38195,6.339303 c 17.56406,8.320461 31.85186,21.890026 39.58208,37.592322 5.03109,10.219583 6.46639,16.256843 7.85738,33.050173 0.93603,11.3006 1.74092,25.1361 1.78863,30.74553 l 0.0868,10.19898 -137.83344,1.25993 c -75.80839,0.69295 -162.2404,1.81131 -192.07114,2.48524 l -54.23771,1.22532 z"
       style="fill:#ffffff;fill-opacity:1;stroke-width:1.99037" />
    <path
       id="path860"
       d="m 337.72183,531.1656 c -16.49676,-1.46282 -25.10407,-3.08562 -34.83155,-6.56703 -13.90328,-4.97592 -42.79125,-19.02307 -47.16097,-22.93264 -1.42912,-1.27863 -3.82994,-3.12889 -5.33516,-4.11169 -8.88248,-5.79965 -23.85949,-19.53046 -28.1461,-25.80414 -4.25865,-6.23275 -3.42764,-9.66718 4.26255,-17.61644 5.14678,-5.32017 6.991,-6.41182 10.77464,-6.37782 3.01166,0.0271 5.48142,1.08946 12.35396,5.31419 8.49622,5.22286 21.06348,9.97406 37.07928,14.01826 12.53365,3.16491 16.06043,3.33226 70.4095,3.34097 59.55835,0.01 67.66149,-0.41565 89.31806,-4.68686 26.14471,-5.15639 46.70855,-11.71512 57.16547,-18.23263 4.26546,-2.65855 6.6709,-3.09488 11.76389,-2.1339 2.15781,0.40715 3.8244,1.06658 4.82637,1.90968 2.68594,2.26007 5.08446,9.08875 5.68414,16.18294 0.46306,5.47798 -0.66407,7.49684 -8.4003,15.04618 -12.62004,12.31518 -20.47996,18.69736 -28.72713,23.32616 -11.74133,6.58994 -28.99292,13.67602 -43.6976,17.94878 -8.61442,2.5031 -33.58402,6.89466 -50.82408,8.93875 -26.48972,3.14078 -41.35257,3.78175 -56.51497,2.43724 z"
       style="fill:#ffffff;fill-opacity:1;stroke-width:0.497594" />
    <path
       id="path862"
       d="m 358.37197,579.9255 c -41.94395,-1.07306 -53.364,-1.65223 -59.46244,-3.01569 -10.05827,-2.24876 -29.17804,-12.47589 -40.27318,-21.54206 -16.28944,-13.31058 -29.34689,-30.43552 -34.13413,-44.76716 -1.56876,-4.69642 -2.39347,-10.74042 -1.79235,-13.13548 0.54564,-2.17397 2.71999,-4.32264 4.37432,-4.32264 2.20134,0 3.13693,0.6889 5.58407,4.11171 6.30085,8.81296 19.48709,18.98576 33.12292,25.55337 12.59621,6.06688 34.89643,15.16795 42.32383,17.27301 3.14946,0.89261 10.84642,1.92244 23.6357,3.16238 13.37103,1.29633 36.37709,1.18412 50.73215,-0.24746 13.80484,-1.37671 25.83958,-2.88154 32.86358,-4.10928 3.01044,-0.5262 10.6516,-1.85029 16.98036,-2.94243 17.26824,-2.97994 27.85203,-6.36183 46.96042,-15.0055 15.88211,-7.18425 28.27558,-14.55198 35.06014,-20.84271 4.57899,-4.24569 5.68355,-4.43289 8.77938,-1.48789 l 2.08355,1.98204 -0.31811,3.36709 c -0.7052,7.46407 -4.62656,18.45368 -8.82408,24.72949 -6.5618,9.8107 -19.19173,20.52993 -36.10655,30.6442 -15.1753,9.07413 -21.18987,11.39268 -40.64061,15.66649 -15.80395,3.47252 -29.32392,4.64329 -56.71595,4.91136 -9.90721,0.0969 -20.81207,0.10467 -24.23302,0.0172 z"
       style="fill:#ffffff;fill-opacity:1;stroke-width:0.497594" />
  </g>
</svg>
